<?xml version="1.0" standalone="no"?>
<!DOCTYPE svg PUBLIC "-//W3C//DTD SVG 20010904//EN"
 "http://www.w3.org/TR/2001/REC-SVG-20010904/DTD/svg10.dtd">
<svg version="1.0" xmlns="http://www.w3.org/2000/svg"
 width="512.000000pt" height="512.000000pt" viewBox="0 0 512.000000 512.000000"
 preserveAspectRatio="xMidYMid meet">
<metadata>
Created by potrace 1.14, written by Peter Selinger 2001-2017
</metadata>
<g transform="translate(0.000000,512.000000) scale(0.100000,-0.100000)"
fill="#000000" stroke="none">
<path d="M2419 4976 c-2 -2 -24 -6 -49 -9 -242 -32 -514 -167 -697 -347 -63
-62 -130 -140 -166 -194 l-25 -38 -119 0 c-66 0 -146 -4 -179 -9 -32 -5 -75
-12 -94 -14 -222 -33 -478 -159 -644 -316 -187 -176 -296 -382 -341 -639 -19
-111 -11 -327 18 -460 65 -300 294 -587 592 -742 120 -62 316 -121 450 -135
28 -3 59 -6 70 -8 11 -2 32 -4 46 -4 l27 -1 -1 -917 c0 -1016 -4 -965 63 -993
25 -11 265 -13 1203 -12 645 0 1184 1 1199 1 16 1 42 14 60 30 l33 29 2 817
c1 450 3 819 5 820 2 1 28 5 59 8 210 23 477 142 643 287 57 50 158 158 201
216 52 69 137 219 160 284 71 195 91 306 89 505 -3 279 -101 553 -277 774 -55
68 -202 202 -282 257 -132 90 -318 172 -431 190 -22 3 -42 8 -45 10 -17 10
-126 19 -235 19 l-120 0 -49 68 c-191 266 -493 454 -820 510 -76 13 -335 22
-346 13z m321 -225 c295 -54 568 -243 724 -500 46 -74 78 -91 160 -84 147 14
264 6 388 -26 339 -88 623 -347 741 -678 15 -40 28 -85 31 -100 2 -15 5 -28 6
-28 1 0 3 -9 4 -20 2 -11 6 -40 10 -65 20 -119 7 -301 -30 -430 -67 -231 -202
-426 -398 -572 -163 -121 -344 -186 -566 -203 -89 -7 -121 -20 -142 -57 -9
-17 -13 -142 -14 -503 -1 -264 -2 -483 -3 -487 0 -5 -480 -8 -1064 -8 l-1064
0 0 582 c0 321 -3 599 -6 618 -12 61 -51 77 -194 84 -433 20 -757 207 -921
531 -34 69 -68 168 -77 223 -3 21 -8 49 -10 62 -6 29 -7 236 -1 265 2 11 7 40
11 64 12 70 51 177 96 260 22 42 44 78 47 81 4 3 19 21 33 40 66 89 171 175
292 240 80 43 257 105 327 114 25 4 58 8 73 11 56 11 224 12 289 3 92 -14 110
-3 182 107 66 101 212 252 296 307 138 90 312 157 455 176 82 11 247 7 325 -7z
m911 -3999 c6 -131 2 -392 -6 -396 -6 -2 -486 -3 -1068 -3 l-1058 0 3 213 2
213 1063 0 1063 1 1 -28z"/>
<path d="M3684 3926 c-17 -8 -39 -24 -48 -37 -20 -30 -21 -88 0 -117 26 -37
41 -42 169 -56 281 -31 498 -272 519 -577 2 -31 9 -65 14 -75 29 -54 85 -73
140 -47 49 23 63 64 57 159 -19 285 -191 548 -435 669 -30 14 -63 31 -72 35
-32 18 -174 49 -243 54 -47 3 -80 1 -101 -8z"/>
<path d="M3294 1731 c-12 -5 -31 -22 -43 -37 -20 -26 -21 -36 -21 -278 1 -225
3 -253 18 -272 39 -46 93 -56 143 -27 45 27 51 55 50 245 0 327 2 304 -28 338
-30 33 -82 46 -119 31z"/>
</g>
</svg>
